<svg width="26" height="26" viewBox="0 0 26 26" fill="none" xmlns="http://www.w3.org/2000/svg">
<path d="M12.9912 23.5088C12.8506 23.5088 12.71 23.5059 12.5693 23.5C12.4346 23.5 12.2998 23.4912 12.165 23.4736L11.5674 24.6074C11.4971 24.7422 11.3975 24.8447 11.2686 24.915C11.1396 24.9854 10.9902 25.0059 10.8203 24.9766C10.6504 24.9473 10.5156 24.877 10.416 24.7656C10.3223 24.6602 10.2607 24.5225 10.2314 24.3525L10.0469 23.1045C9.7832 23.04 9.52246 22.958 9.26465 22.8584C9.00684 22.7646 8.75488 22.665 8.50879 22.5596L7.59473 23.3857C7.47168 23.4912 7.33398 23.5557 7.18164 23.5791C7.0293 23.6025 6.87402 23.5732 6.71582 23.4912C6.58105 23.4092 6.48438 23.2979 6.42578 23.1572C6.37305 23.0166 6.36133 22.8643 6.39062 22.7002L6.64551 21.4697C6.43457 21.3115 6.2207 21.1445 6.00391 20.9688C5.79297 20.7988 5.59082 20.6201 5.39746 20.4326L4.25488 20.9072C4.09082 20.9717 3.93555 20.9834 3.78906 20.9424C3.64844 20.9072 3.5166 20.8223 3.39355 20.6875C3.28809 20.5703 3.23242 20.4355 3.22656 20.2832C3.2207 20.1309 3.26172 19.9844 3.34961 19.8438L4 18.7715C3.85352 18.5547 3.71289 18.3262 3.57812 18.0859C3.44922 17.8457 3.32031 17.6025 3.19141 17.3564L1.94336 17.4092C1.7793 17.4209 1.63281 17.3857 1.50391 17.3037C1.375 17.2217 1.28418 17.0957 1.23145 16.9258C1.17871 16.7734 1.17578 16.627 1.22266 16.4863C1.26953 16.3398 1.35449 16.2197 1.47754 16.126L2.46191 15.335C2.3916 15.0771 2.33301 14.8135 2.28613 14.5439C2.23926 14.2744 2.20703 14.002 2.18945 13.7266L0.985352 13.3398C0.821289 13.2871 0.695312 13.2021 0.607422 13.085C0.525391 12.9678 0.484375 12.8242 0.484375 12.6543C0.484375 12.4785 0.525391 12.332 0.607422 12.2148C0.695312 12.0977 0.821289 12.0156 0.985352 11.9688L2.18945 11.582C2.20703 11.3066 2.23926 11.0371 2.28613 10.7734C2.33301 10.5039 2.3916 10.2344 2.46191 9.96484L1.47754 9.18262C1.34863 9.08301 1.26074 8.96582 1.21387 8.83105C1.17285 8.69043 1.17871 8.54395 1.23145 8.3916C1.28418 8.22168 1.375 8.09863 1.50391 8.02246C1.63281 7.94043 1.7793 7.90234 1.94336 7.9082L3.19141 7.95215C3.32031 7.7002 3.44922 7.45703 3.57812 7.22266C3.71289 6.98828 3.85645 6.75977 4.00879 6.53711L3.34082 5.45605C3.25293 5.32715 3.21484 5.18652 3.22656 5.03418C3.23828 4.88184 3.29395 4.74707 3.39355 4.62988C3.5166 4.48926 3.64844 4.40137 3.78906 4.36621C3.93555 4.33105 4.08789 4.3457 4.24609 4.41016L5.39746 4.86719C5.59082 4.69141 5.79297 4.51562 6.00391 4.33984C6.2207 4.16406 6.43457 3.99707 6.64551 3.83887L6.39062 2.61719C6.35547 2.44141 6.36719 2.28613 6.42578 2.15137C6.48438 2.0166 6.58105 1.9082 6.71582 1.82617C6.87402 1.74414 7.02637 1.71484 7.17285 1.73828C7.3252 1.75586 7.46582 1.82031 7.59473 1.93164L8.50879 2.74902C8.75488 2.64355 9.00684 2.54395 9.26465 2.4502C9.52246 2.35645 9.7832 2.27441 10.0469 2.2041L10.2314 0.964844C10.2607 0.794922 10.3223 0.657227 10.416 0.551758C10.5156 0.44043 10.6504 0.370117 10.8203 0.34082C10.9844 0.311523 11.1338 0.332031 11.2686 0.402344C11.4033 0.466797 11.5029 0.563477 11.5674 0.692383L12.165 1.83496C12.3057 1.81738 12.4434 1.80566 12.5781 1.7998C12.7129 1.79395 12.8506 1.79102 12.9912 1.79102C13.126 1.79102 13.2607 1.79395 13.3955 1.7998C13.5361 1.80566 13.6738 1.81738 13.8086 1.83496L14.4062 0.692383C14.4707 0.563477 14.5674 0.466797 14.6963 0.402344C14.8311 0.332031 14.9834 0.311523 15.1533 0.34082C15.3232 0.370117 15.458 0.44043 15.5576 0.551758C15.6572 0.657227 15.7188 0.794922 15.7422 0.964844L15.9268 2.2041C16.1904 2.27441 16.4512 2.35645 16.709 2.4502C16.9668 2.54395 17.2188 2.64355 17.4648 2.74902L18.3877 1.92285C18.5049 1.81738 18.6396 1.75586 18.792 1.73828C18.9443 1.71484 19.0996 1.74414 19.2578 1.82617C19.3926 1.9082 19.4893 2.0166 19.5479 2.15137C19.6064 2.28613 19.6182 2.44141 19.583 2.61719L19.3281 3.83887C19.5449 3.99707 19.7588 4.16406 19.9697 4.33984C20.1807 4.51562 20.3828 4.69141 20.5762 4.86719L21.7275 4.41016C21.8857 4.3457 22.0381 4.33105 22.1846 4.36621C22.3311 4.40137 22.4629 4.48926 22.5801 4.62988C22.6797 4.74707 22.7324 4.88184 22.7383 5.03418C22.75 5.18652 22.7148 5.32715 22.6328 5.45605L21.9648 6.53711C22.2695 6.98828 22.542 7.45996 22.7822 7.95215L24.0391 7.9082C24.2031 7.90234 24.3496 7.94043 24.4785 8.02246C24.6074 8.09863 24.6953 8.22168 24.7422 8.3916C24.7949 8.54395 24.7949 8.69043 24.7422 8.83105C24.6953 8.96582 24.6133 9.08301 24.4961 9.18262L23.5205 9.96484C23.585 10.2344 23.6406 10.5039 23.6875 10.7734C23.7344 11.0371 23.7725 11.3066 23.8018 11.582L24.9795 11.9688C25.1436 12.0156 25.2725 12.1006 25.3662 12.2236C25.46 12.3408 25.5068 12.4844 25.5068 12.6543C25.5068 12.8242 25.46 12.9678 25.3662 13.085C25.2725 13.2021 25.1436 13.2871 24.9795 13.3398L23.8018 13.7266C23.7725 14.002 23.7344 14.2744 23.6875 14.5439C23.6406 14.8135 23.585 15.0771 23.5205 15.335L24.4961 16.126C24.6191 16.2256 24.7041 16.3486 24.751 16.4951C24.8037 16.6357 24.8008 16.7793 24.7422 16.9258C24.6953 17.0957 24.6074 17.2217 24.4785 17.3037C24.3496 17.3857 24.2031 17.4209 24.0391 17.4092L22.7822 17.3564C22.6592 17.6025 22.5303 17.8457 22.3955 18.0859C22.2666 18.3262 22.123 18.5547 21.9648 18.7715L22.6328 19.8438C22.7207 19.9902 22.7588 20.1367 22.7471 20.2832C22.7412 20.4355 22.6855 20.5703 22.5801 20.6875C22.4629 20.8223 22.3311 20.9072 22.1846 20.9424C22.0381 20.9834 21.8857 20.9717 21.7275 20.9072L20.585 20.4326C20.3857 20.6201 20.1807 20.7988 19.9697 20.9688C19.7588 21.1445 19.5449 21.3115 19.3281 21.4697L19.583 22.7002C19.624 22.8643 19.6152 23.0166 19.5566 23.1572C19.498 23.2979 19.3984 23.4092 19.2578 23.4912C19.0996 23.5732 18.9443 23.6025 18.792 23.5791C18.6455 23.5557 18.5107 23.4912 18.3877 23.3857L17.4648 22.5596C17.2188 22.665 16.9668 22.7646 16.709 22.8584C16.4512 22.9521 16.1904 23.0342 15.9268 23.1045L15.7422 24.3525C15.7188 24.5225 15.6572 24.6602 15.5576 24.7656C15.458 24.877 15.3262 24.9473 15.1621 24.9766C14.9922 25.0059 14.8398 24.9854 14.7051 24.915C14.5703 24.8447 14.4707 24.7422 14.4062 24.6074L13.8086 23.4736C13.6738 23.4912 13.5361 23.5 13.3955 23.5C13.2607 23.5059 13.126 23.5088 12.9912 23.5088ZM12.9912 21.6367C14.2393 21.6367 15.4023 21.4053 16.4805 20.9424C17.5586 20.4854 18.502 19.8467 19.3105 19.0264C20.125 18.2061 20.7578 17.2539 21.209 16.1699C21.6602 15.0801 21.8857 13.9111 21.8857 12.6631C21.8857 11.4092 21.6602 10.2373 21.209 9.14746C20.7578 8.05762 20.125 7.10254 19.3105 6.28223C18.502 5.46191 17.5586 4.82031 16.4805 4.35742C15.4023 3.89453 14.2393 3.66309 12.9912 3.66309C11.7432 3.66309 10.5801 3.89453 9.50195 4.35742C8.42383 4.82031 7.48047 5.46191 6.67188 6.28223C5.86914 7.10254 5.24219 8.05762 4.79102 9.14746C4.33984 10.2373 4.11426 11.4092 4.11426 12.6631C4.11426 13.9111 4.33984 15.0801 4.79102 16.1699C5.24219 17.2539 5.86914 18.2061 6.67188 19.0264C7.48047 19.8467 8.42383 20.4854 9.50195 20.9424C10.5801 21.4053 11.7432 21.6367 12.9912 21.6367ZM10.9697 10.8613L7.17285 4.36621L8.63184 3.59277L12.3672 10L10.9697 10.8613ZM15.5664 13.4453V11.8018H23.002V13.4453H15.5664ZM12.3936 15.3174L8.51758 21.6982L7.08496 20.8896L11.0225 14.4297L12.3936 15.3174ZM12.9824 15.6689C12.4258 15.6689 11.9189 15.5342 11.4619 15.2646C11.0107 14.9951 10.6504 14.6348 10.3809 14.1836C10.1113 13.7266 9.97656 13.2227 9.97656 12.6719C9.97656 12.1152 10.1113 11.6113 10.3809 11.1602C10.6504 10.7031 11.0107 10.3398 11.4619 10.0703C11.9189 9.79492 12.4258 9.65723 12.9824 9.65723C13.5332 9.65723 14.0342 9.79492 14.4854 10.0703C14.9424 10.3398 15.3057 10.7031 15.5752 11.1602C15.8447 11.6113 15.9795 12.1152 15.9795 12.6719C15.9795 13.2227 15.8447 13.7266 15.5752 14.1836C15.3057 14.6348 14.9424 14.9951 14.4854 15.2646C14.0342 15.5342 13.5332 15.6689 12.9824 15.6689ZM12.9824 14.0078C13.3574 14.0078 13.6768 13.8818 13.9404 13.6299C14.2041 13.3721 14.3359 13.0527 14.3359 12.6719C14.3359 12.2852 14.2041 11.9629 13.9404 11.7051C13.6768 11.4473 13.3574 11.3184 12.9824 11.3184C12.5957 11.3184 12.2734 11.4473 12.0156 11.7051C11.7637 11.9629 11.6377 12.2852 11.6377 12.6719C11.6377 13.0527 11.7637 13.3721 12.0156 13.6299C12.2734 13.8818 12.5957 14.0078 12.9824 14.0078Z" fill="#FFD953"/>
</svg>
