<svg width="28" height="21" viewBox="0 0 28 21" fill="none" xmlns="http://www.w3.org/2000/svg">
<path d="M5.3252 16.8154H8.10254C8.43652 16.8154 8.70605 16.7158 8.91113 16.5166C9.11621 16.3115 9.21875 16.0479 9.21875 15.7256V13.625C9.21875 13.3086 9.11621 13.0479 8.91113 12.8428C8.70605 12.6377 8.43652 12.5352 8.10254 12.5352H5.3252C4.99121 12.5352 4.72168 12.6377 4.5166 12.8428C4.31152 13.0479 4.20898 13.3086 4.20898 13.625V15.7256C4.20898 16.0479 4.31152 16.3115 4.5166 16.5166C4.72168 16.7158 4.99121 16.8154 5.3252 16.8154ZM0.666992 8.14941H27.3242V5.53027H0.666992V8.14941ZM4.25293 20.3574C3.0752 20.3574 2.18164 20.0557 1.57227 19.4521C0.96875 18.8545 0.666992 17.9697 0.666992 16.7979V4.53711C0.666992 3.37109 0.96875 2.48926 1.57227 1.8916C2.18164 1.28809 3.0752 0.986328 4.25293 0.986328H23.7295C24.9131 0.986328 25.8066 1.28809 26.4102 1.8916C27.0195 2.49512 27.3242 3.37695 27.3242 4.53711V16.7979C27.3242 17.9639 27.0195 18.8486 26.4102 19.4521C25.8066 20.0557 24.9131 20.3574 23.7295 20.3574H4.25293Z" fill="#FFD953"/>
</svg>
