<svg width="24" height="24" viewBox="0 0 24 24" fill="none" xmlns="http://www.w3.org/2000/svg">
<path d="M11.9912 23.2559C10.7197 23.2559 9.50684 23.0596 8.35254 22.667C7.19824 22.2744 6.1377 21.7207 5.1709 21.0059C4.2041 20.291 3.36328 19.4502 2.64844 18.4834C1.93359 17.5166 1.37988 16.4561 0.987305 15.3018C0.594727 14.1475 0.398438 12.9346 0.398438 11.6631C0.398438 10.4619 0.574219 9.31055 0.925781 8.20898C1.2832 7.10742 1.78418 6.08789 2.42871 5.15039C3.07324 4.21289 3.83789 3.38672 4.72266 2.67188C5.60742 1.95117 6.58008 1.37109 7.64062 0.931641C8.70117 0.492188 9.82031 0.222656 10.998 0.123047V11.7949C10.998 11.9707 11.0186 12.1143 11.0596 12.2256C11.1006 12.3311 11.1768 12.4365 11.2881 12.542L19.4268 20.5137C18.3896 21.3867 17.2354 22.0605 15.9639 22.5352C14.6924 23.0156 13.3682 23.2559 11.9912 23.2559ZM23.5928 11.6543C23.5928 13.1074 23.3262 14.5049 22.793 15.8467C22.2598 17.1826 21.5303 18.3574 20.6045 19.3711L13.2568 12.1377L22.5029 6.83789C22.8428 7.55273 23.1094 8.32617 23.3027 9.1582C23.4961 9.98438 23.5928 10.8164 23.5928 11.6543ZM12.5889 10.6699V0.0878906C13.4854 0.128906 14.3701 0.28125 15.2432 0.544922C16.1221 0.808594 16.96 1.17187 17.7568 1.63477C18.5596 2.09766 19.2979 2.64844 19.9717 3.28711C20.6514 3.92578 21.2373 4.64062 21.7295 5.43164L12.5889 10.6699Z" fill="#FFD953"/>
</svg>
